name analog
datacolumns 19
datarows 47
range 0.3225 0.34550000000000003
endheader
time	ground_force_vx	ground_force_vy	ground_force_vz	ground_force_px	ground_force_py	ground_force_pz	l_ground_force_vx	l_ground_force_vy	l_ground_force_vz	l_ground_force_px	l_ground_force_py	l_ground_force_pz	ground_torque_x	ground_torque_y	ground_torque_z	l_ground_torque_x	l_ground_torque_y	l_ground_torque_z
0.3225	-0.0	-0.0	-0.0	11.034503936767578	32.07733917236328	-446.1755065917969	-10.382298469543455	-34.177371978759766	-425.1585388183594	-0.0	-0.0	-0.0	-0.0	-0.0	-0.0	89426.0078125	6917.65283203125	-19167.75
0.323	-0.0	-0.0	-0.0	10.972892761230469	32.31686782836914	-446.9773254394531	-10.85337257385254	-34.506500244140625	-424.796875	-0.0	-0.0	-0.0	-0.0	-0.0	-0.0	89441.65625	6739.07470703125	-19198.8671875
0.3235	-0.0	-0.0	-0.0	11.648544311523438	31.963367462158203	-447.1257934570313	-10.880695343017578	-34.59150695800781	-425.2529602050781	-0.0	-0.0	-0.0	-0.0	-0.0	-0.0	89515.3515625	6735.296875	-19251.427734375
0.324	-0.0	-0.0	-0.0	11.364445686340332	32.25775146484375	-446.2820434570313	-10.406292915344238	-34.560791015625	-424.9031372070313	-0.0	-0.0	-0.0	-0.0	-0.0	-0.0	89364.0703125	6609.322265625	-19217.88671875
0.3245	-0.0	-0.0	-0.0	11.616825103759766	31.84669685363769	-445.59027099609375	-10.263401985168455	-34.86013412475586	-425.9649658203125	-0.0	-0.0	-0.0	-0.0	-0.0	-0.0	89591.3828125	6733.81103515625	-19081.087890625
0.325	-0.0	-0.0	-0.0	11.869078636169434	31.292924880981445	-445.34375	-9.758186340332031	-34.86028289794922	-424.478271484375	-0.0	-0.0	-0.0	-0.0	-0.0	-0.0	89326.15625	6586.80322265625	-19011.11328125
0.3255	-0.0	-0.0	-0.0	12.63254737854004	31.168731689453125	-445.729736328125	-9.314632415771484	-34.73712158203125	-425.4940185546875	-0.0	-0.0	-0.0	-0.0	-0.0	-0.0	89366.0625	6588.55810546875	-18930.7578125
0.326	-0.0	-0.0	-0.0	13.145142555236816	31.311561584472656	-446.1724243164063	-9.225921630859377	-34.56893539428711	-425.98193359375	-0.0	-0.0	-0.0	-0.0	-0.0	-0.0	89287.8984375	6561.20361328125	-18863.81640625
0.3265	-0.0	-0.0	-0.0	13.591270446777344	31.10651016235352	-445.4472351074219	-8.902158737182617	-34.714935302734375	-425.8248291015625	-0.0	-0.0	-0.0	-0.0	-0.0	-0.0	89454.2265625	6384.2666015625	-18927.380859375
0.327	-0.0	-0.0	-0.0	14.157922744750977	31.10651016235352	-443.2408447265625	-9.309927940368652	-35.02802276611328	-427.012451171875	-0.0	-0.0	-0.0	-0.0	-0.0	-0.0	89716.8203125	6461.06884765625	-18911.509765625
0.3275	-0.0	-0.0	-0.0	13.89044189453125	30.797731399536133	-444.9869079589844	-9.372129440307615	-35.006465911865234	-427.361572265625	-0.0	-0.0	-0.0	-0.0	-0.0	-0.0	89755.1640625	6611.91357421875	-18902.76171875
0.328	-0.0	-0.0	-0.0	14.011183738708496	30.5928897857666	-443.4695129394531	-9.28843116760254	-35.33370590209961	-426.2942504882813	-0.0	-0.0	-0.0	-0.0	-0.0	-0.0	89446.140625	6633.5068359375	-18981.353515625
0.3285	-0.0	-0.0	-0.0	14.00605010986328	30.27287483215332	-441.5787963867188	-9.580764770507812	-35.338985443115234	-425.6158447265625	-0.0	-0.0	-0.0	-0.0	-0.0	-0.0	89232.3828125	6651.42333984375	-18883.8515625
0.329	-0.0	-0.0	-0.0	13.97448444366455	30.25222396850586	-440.4969177246094	-9.2832612991333	-35.089561462402344	-425.3476257324219	-0.0	-0.0	-0.0	-0.0	-0.0	-0.0	89148.7578125	6924.4130859375	-18890.52734375
0.3295	-0.0	-0.0	-0.0	14.305288314819336	30.13167953491211	-439.4002380371094	-9.116850852966309	-34.67364501953125	-423.29541015625	-0.0	-0.0	-0.0	-0.0	-0.0	-0.0	88871.3828125	6792.52685546875	-18841.453125
0.33	-0.0	-0.0	-0.0	14.99315071105957	29.79541015625	-437.9660339355469	-8.97119140625	-34.53945541381836	-422.8001708984375	-0.0	-0.0	-0.0	-0.0	-0.0	-0.0	88820.84375	6712.072265625	-18756.119140625
0.3305	-0.0	-0.0	-0.0	15.24898624420166	29.87838554382324	-438.7989501953125	-8.813913345336914	-34.59659576416016	-422.0234680175781	-0.0	-0.0	-0.0	-0.0	-0.0	-0.0	88667.78125	6900.3779296875	-18764.712890625
0.331	-0.0	-0.0	-0.0	15.401618957519531	29.464210510253903	-438.14251708984375	-8.636549949645996	-34.38860321044922	-423.544921875	-0.0	-0.0	-0.0	-0.0	-0.0	-0.0	88930.3359375	6631.40673828125	-18682.087890625
0.3315	-0.0	-0.0	-0.0	15.720097541809082	29.41944122314453	-438.4478759765625	-8.281782150268555	-34.21833038330078	-424.3190002441406	-0.0	-0.0	-0.0	-0.0	-0.0	-0.0	88959.3125	6605.57470703125	-18478.3203125
0.332	-0.0	-0.0	-0.0	15.382661819458008	29.330434799194336	-438.72406005859375	-7.952250480651855	-34.01027297973633	-424.2678833007813	-0.0	-0.0	-0.0	-0.0	-0.0	-0.0	89188.171875	6499.21826171875	-18408.158203125
0.3325	-0.0	-0.0	-0.0	15.509303092956545	29.495506286621094	-438.1697998046875	-7.122050285339356	-34.09217071533203	-426.5382690429688	-0.0	-0.0	-0.0	-0.0	-0.0	-0.0	89590.328125	6537.1884765625	-18312.041015625
0.333	-0.0	-0.0	-0.0	15.879470825195312	29.189001083374023	-439.3013000488281	-7.32435941696167	-33.63240432739258	-426.5379638671875	-0.0	-0.0	-0.0	-0.0	-0.0	-0.0	89546.1015625	6663.12451171875	-18354.5
0.3335	-0.0	-0.0	-0.0	15.98672580718994	29.46310806274414	-437.1653442382813	-7.242405891418457	-33.73888397216797	-425.6158447265625	-0.0	-0.0	-0.0	-0.0	-0.0	-0.0	89202.6484375	6651.03125	-18348.412109375
0.334	-0.0	-0.0	-0.0	15.790260314941406	29.70534324645996	-438.64947509765625	-7.103962421417236	-33.19481658935547	-426.0347900390625	-0.0	-0.0	-0.0	-0.0	-0.0	-0.0	89431.6953125	6712.34765625	-18362.470703125
0.3345	-0.0	-0.0	-0.0	15.651466369628906	29.90568733215332	-438.0412902832031	-7.146237373352051	-32.943992614746094	-425.0435180664063	-0.0	-0.0	-0.0	-0.0	-0.0	-0.0	89218.9453125	6539.94677734375	-18345.828125
0.335	-0.0	-0.0	-0.0	15.254997253417969	29.70511054992676	-438.64947509765625	-7.128916263580322	-33.194122314453125	-425.0143432617188	-0.0	-0.0	-0.0	-0.0	-0.0	-0.0	89478.4609375	6519.9052734375	-18375.54296875
0.3355	-0.0	-0.0	-0.0	15.019692420959473	30.004648208618164	-439.002685546875	-7.653581619262695	-33.16025924682617	-425.0439758300781	-0.0	-0.0	-0.0	-0.0	-0.0	-0.0	89867.0	6586.17724609375	-18521.662109375
0.336	-0.0	-0.0	-0.0	14.29812240600586	30.004589080810547	-440.0621948242188	-7.798700332641602	-33.59428787231445	-426.5675048828125	-0.0	-0.0	-0.0	-0.0	-0.0	-0.0	89759.921875	6790.083984375	-18508.166015625
0.3365	-0.0	-0.0	-0.0	13.957484245300291	30.36913108825684	-440.6401977539063	-8.040453910827637	-33.7067985534668	-428.0912780761719	-0.0	-0.0	-0.0	-0.0	-0.0	-0.0	89989.171875	6840.44921875	-18670.294921875
0.337	-0.0	-0.0	-0.0	13.129855155944824	30.59591293334961	-440.8972473144531	-8.080879211425781	-34.50978088378906	-429.45648193359375	-0.0	-0.0	-0.0	-0.0	-0.0	-0.0	90376.71875	6775.06201171875	-18851.1796875
0.3375	-0.0	-0.0	-0.0	13.503347396850586	30.247737884521484	-441.9234619140625	-8.621688842773438	-34.30103302001953	-428.8196716308594	-0.0	-0.0	-0.0	-0.0	-0.0	-0.0	90220.390625	6734.677734375	-19059.16015625
0.338	-0.0	-0.0	-0.0	13.892833709716797	30.06951904296875	-442.8536376953125	-8.693656921386719	-34.3164176940918	-428.248046875	-0.0	-0.0	-0.0	-0.0	-0.0	-0.0	90220.78125	6651.21484375	-18921.728515625
0.3385	-0.0	-0.0	-0.0	14.386747360229492	30.289316177368164	-441.828125	-8.871078491210938	-33.91552734375	-429.2351684570313	-0.0	-0.0	-0.0	-0.0	-0.0	-0.0	90115.5	6816.27001953125	-19032.490234375
0.339	-0.0	-0.0	-0.0	14.597787857055664	30.13506507873535	-441.7697448730469	-8.782367706298828	-34.0362434387207	-427.4546508789063	-0.0	-0.0	-0.0	-0.0	-0.0	-0.0	90252.9453125	6778.12939453125	-18948.453125
0.3395	-0.0	-0.0	-0.0	15.18015193939209	30.54816055297852	-440.955322265625	-8.371423721313477	-33.208953857421875	-427.8031921386719	-0.0	-0.0	-0.0	-0.0	-0.0	-0.0	89978.3515625	6859.11376953125	-18940.048828125
0.34	-0.0	-0.0	-0.0	15.471080780029297	30.26217460632324	-438.5754699707031	-8.581538200378418	-33.194854736328125	-427.7664794921875	-0.0	-0.0	-0.0	-0.0	-0.0	-0.0	89733.984375	6847.4853515625	-18969.85546875
0.3405	-0.0	-0.0	-0.0	15.442891120910645	30.32274627685547	-437.943115234375	-8.847753524780273	-33.63191223144531	-426.8837585449219	-0.0	-0.0	-0.0	-0.0	-0.0	-0.0	89646.421875	7013.20068359375	-19018.55078125
0.341	-0.0	-0.0	-0.0	15.59244155883789	29.670734405517575	-436.2693481445313	-8.660888671875	-34.06909942626953	-425.79827880859375	-0.0	-0.0	-0.0	-0.0	-0.0	-0.0	89485.765625	6980.43017578125	-19007.546875
0.3415	-0.0	-0.0	-0.0	15.40040683746338	29.845333099365234	-435.0259094238281	-8.982880592346191	-34.09217071533203	-424.8266296386719	-0.0	-0.0	-0.0	-0.0	-0.0	-0.0	89395.953125	7152.06494140625	-19011.00390625
0.342	-0.0	-0.0	-0.0	15.274998664855955	29.901716232299805	-435.2882080078125	-8.749499320983887	-34.26881408691406	-424.4389953613281	-0.0	-0.0	-0.0	-0.0	-0.0	-0.0	89239.21875	7216.51806640625	-19085.595703125
0.3425	-0.0	-0.0	-0.0	15.453871726989746	30.095422744750977	-436.75238037109375	-8.891314506530762	-34.10224533081055	-424.9971923828125	-0.0	-0.0	-0.0	-0.0	-0.0	-0.0	89247.6015625	7368.1708984375	-19073.697265625
0.343	-0.0	-0.0	-0.0	15.321372985839844	29.904312133789062	-438.4771423339844	-9.314632415771484	-34.09217071533203	-424.7877197265625	-0.0	-0.0	-0.0	-0.0	-0.0	-0.0	89098.0078125	7373.00146484375	-19071.380859375
0.3435	-0.0	-0.0	-0.0	14.975261688232422	29.592817306518555	-437.6737365722656	-8.672719955444336	-34.19091796875	-425.3967895507813	-0.0	-0.0	-0.0	-0.0	-0.0	-0.0	89203.765625	7664.20263671875	-19077.775390625
0.34400000000000003	-0.0	-0.0	-0.0	15.254997253417969	30.80582618713379	-440.1941223144531	-8.881722450256348	-33.96027755737305	-426.5329284667969	-0.0	-0.0	-0.0	-0.0	-0.0	-0.0	89092.359375	7572.07470703125	-18925.5703125
0.34450000000000003	-0.0	-0.0	-0.0	15.24411678314209	30.783321380615234	-443.0197448730469	-8.42752456665039	-34.09217071533203	-425.9649658203125	-0.0	-0.0	-0.0	-0.0	-0.0	-0.0	89330.7421875	7677.0166015625	-18866.0078125
0.34500000000000003	-0.0	-0.0	-0.0	15.623064994812012	31.1622314453125	-444.741943359375	-8.294586181640625	-34.29096221923828	-427.841552734375	-0.0	-0.0	-0.0	-0.0	-0.0	-0.0	89763.90625	7576.02392578125	-18840.162109375
0.34550000000000003	-0.0	-0.0	-0.0	16.10232162475586	31.384822845458984	-445.0500183105469	-7.828673839569092	-34.368045806884766	-429.45648193359375	-0.0	-0.0	-0.0	-0.0	-0.0	-0.0	89818.90625	7587.61181640625	-18754.572265625
